<svg viewBox="0 0 24 24" fill="currentColor" xmlns="http://www.w3.org/2000/svg">
  <path d="M12.062 10.395L6.685 1.09l-3.325.045c-1.127.014-2.02.936-1.996 2.063l.115 5.512c.023 1.107.925 2 2.032 2.016l4.24.062 4.311-.393z"/>
  <path d="M12.062 10.395l-4.311.393-4.24-.062c-1.107-.016-1.986.877-1.961 1.984l.116 5.343c.025 1.127.947 2.028 2.074 2l3.418-.083 4.904-9.575z" fillOpacity=".8"/>
  <path d="M12.062 10.395l4.904 9.575 3.51-.086c1.127-.028 2.028-.949 2-2.076l-.116-5.342c-.024-1.107-.936-1.985-2.043-1.96l-4.14.098-4.115.391z" fillOpacity=".6"/>
  <path d="M12.062 10.395l4.115-.391 4.14-.098c1.107-.025 2.02-.926 1.997-2.033l-.116-5.511c-.024-1.127-.946-2.035-2.073-2.008l-3.325.081-4.738 9.96z" fillOpacity=".4"/>
</svg>